
<svg xmlns="http://www.w3.org/2000/svg" version="1.1" xmlns:xlink="http://www.w3.org/1999/xlink" preserveAspectRatio="none" x="0px" y="0px" width="80px" height="80px" viewBox="0 0 80 80">
<defs>
<path id="Layer5_0_1_STROKES" stroke="#171717" stroke-width="3" stroke-linejoin="round" stroke-linecap="round" fill="none" d="
M 11.6 65.55
Q 12.6 61.55 14.5 57.55
L 30.5 50.7
Q 28.35 47.9 27.4 44.4 26.95 44.45 26.5 44.45 24.8 44.45 23.65 43.25 22.5 42.05 22.5 40.45 22.5 38.8 23.65 37.6 24.8 36.45 26.5 36.45
L 26.55 36.45
Q 26.6 34.3 27.05 32.4 27.05 32.35 27.1 32.3 21.7 17.55 31.6 11.9 37.55 14.8 48.15 13.3 57.7 11.85 55.95 33.35 55.8 34.85 55.65 36.5 56.85 36.7 57.8 37.6 59 38.8 59 40.45 59 42.05 57.8 43.25 56.65 44.45 55 44.45 54.55 44.45 54.15 44.4 53.05 48 50.85 50.85 46.7 56.4 40.75 56.4 34.85 56.4 30.7 50.85 30.55 50.75 30.5 50.7
M 27.1 32.3
L 27.1 32.4
Q 41.8 33.6 47.6 24.45 48.7 31.8 55.95 33.35
M 27.05 32.4
L 27.1 32.4
M 51.55 50.7
L 67.55 57.55
Q 69.5 61.55 70.45 65.55"/>
</defs>

<g transform="matrix( 1, 0, 0, 1, 0,0) ">
<use xlink:href="#Layer5_0_1_STROKES"/>
</g>
</svg>
